<?xml version="1.0" encoding="UTF-8"?>
<svg width="24" height="24" viewBox="0 0 24 24" fill="none" xmlns="http://www.w3.org/2000/svg">
  <!-- 链条图标 -->
  <path d="M8 6C8 4.34315 9.34315 3 11 3H13C14.6569 3 16 4.34315 16 6V10C16 11.6569 14.6569 13 13 13H11C9.34315 13 8 11.6569 8 10V6Z" stroke="currentColor" stroke-width="2" fill="none"/>
  <path d="M8 14C8 12.3431 9.34315 11 11 11H13C14.6569 11 16 12.3431 16 14V18C16 19.6569 14.6569 21 13 21H11C9.34315 21 8 19.6569 8 18V14Z" stroke="currentColor" stroke-width="2" fill="none"/>
  <path d="M11 11V13" stroke="currentColor" stroke-width="2" stroke-linecap="round"/>
</svg> 